<svg width="128" height="128" viewBox="0 0 128 128" fill="none" xmlns="http://www.w3.org/2000/svg">
<g clip-path="url(#clip0_28_2)">
<path d="M57.2308 0.250863C49.5329 1.32961 41.8951 3.63693 35.0091 7.02299L30.3783 9.30034L52.4496 31.2948L74.521 53.2892L74.6713 44.0899C74.7615 38.9958 74.942 34.5909 75.0923 34.2613C75.6035 33.0927 77.2273 31.7143 78.4 31.3847C80.7154 30.7554 83.2713 31.8042 84.2937 33.8418C84.865 34.9505 84.8951 35.6697 84.8951 50.5923C84.8951 67.6125 84.9552 67.1331 83.151 68.6313C81.9482 69.6202 80.0839 70.1895 78.7308 69.9498C77.4979 69.7101 75.0322 67.3728 40.121 32.9728L22.7105 15.8327L20.2447 18.1401C14.8923 23.1442 10.1413 29.6467 6.71328 36.6585C3.40559 43.3707 1.54125 49.7533 0.669223 57.3045C0.188104 61.4697 0.488804 70.2495 1.24055 74.5645C5.6909 99.4355 24.2441 119.422 48.5706 125.625C54.6448 127.183 59.5762 127.723 66.2517 127.513C75.9643 127.243 84.7147 125.056 93.886 120.531L98.5168 118.254L76.4454 96.2592L54.3741 74.2648L54.2238 83.4641C54.0734 93.2927 54.0734 93.3226 52.4797 95.0307C50.3748 97.2481 46.0447 96.5589 44.6014 93.7122C44.0301 92.6035 44 91.8843 44 76.8718V61.17L44.6916 60.1512C45.8042 58.5031 47.1573 57.784 49.0818 57.784H50.7657L78.1594 85.0822L105.553 112.38L107.899 110.193C116.529 102.013 123.204 90.4759 126.091 78.6996C127.534 72.8864 127.985 68.1519 127.805 61.23C127.685 56.4655 127.504 54.3979 126.873 51.1017C124.497 38.7561 118.874 27.9387 110.184 19.009C100.682 9.30034 89.1049 3.21741 75.5734 0.790235C71.6643 0.101037 60.6888 -0.22858 57.2308 0.250863Z" fill="#EBD300"/>
</g>
<defs>
<clipPath id="clip0_28_2">
<rect width="128" height="128" fill="white"/>
</clipPath>
</defs>
</svg>
