<svg width="66" height="66" viewBox="0 0 66 66" fill="none" xmlns="http://www.w3.org/2000/svg">
<circle cx="33" cy="33" r="33" fill="#EBD300"/>
<g clip-path="url(#clip0_1_11)">
<path d="M51.1566 33.0465C51.178 32.5523 51.3898 32.0855 51.7479 31.7433C52.1059 31.4012 52.5825 31.2102 53.0783 31.2102C53.5741 31.2102 54.0507 31.4012 54.4087 31.7433C54.7668 32.0855 54.9786 32.5523 55 33.0465C54.9995 37.406 53.698 41.6666 51.2615 45.2851C48.8249 48.9037 45.3636 51.7164 41.3189 53.3646C37.2741 55.0128 32.8291 55.4219 28.5504 54.5398C24.2718 53.6577 20.3533 51.5242 17.2944 48.4115V52.8337C17.2944 53.3427 17.0918 53.8308 16.7311 54.1908C16.3703 54.5507 15.8811 54.7529 15.3709 54.7529C14.8608 54.7529 14.3715 54.5507 14.0108 54.1908C13.6501 53.8308 13.4474 53.3427 13.4474 52.8337V42.9795C13.4522 42.4736 13.6569 41.99 14.0171 41.6339C14.3773 41.2778 14.8639 41.0781 15.3709 41.0781H25.3545C25.6138 41.0669 25.8727 41.1082 26.1157 41.1996C26.3586 41.2909 26.5805 41.4303 26.7679 41.6095C26.9554 41.7886 27.1046 42.0038 27.2065 42.242C27.3085 42.4802 27.361 42.7366 27.361 42.9956C27.361 43.2546 27.3085 43.511 27.2065 43.7492C27.1046 43.9874 26.9554 44.2026 26.7679 44.3817C26.5805 44.5609 26.3586 44.7003 26.1157 44.7916C25.8727 44.883 25.6138 44.9243 25.3545 44.9131H19.2538C21.6764 47.7077 24.8974 49.6965 28.485 50.6127C32.0725 51.5289 35.855 51.3287 39.3253 50.0391C42.7956 48.7494 45.7877 46.4318 47.9005 43.3972C50.0133 40.3625 51.1457 36.7559 51.1458 33.0609L51.1566 33.0465ZM49.2546 12.9193C49.2434 12.6605 49.2848 12.4021 49.3763 12.1597C49.4679 11.9173 49.6076 11.6959 49.7872 11.5089C49.9667 11.3218 50.1823 11.1729 50.4211 11.0712C50.6598 10.9695 50.9167 10.9171 51.1763 10.9171C51.4359 10.9171 51.6928 10.9695 51.9316 11.0712C52.1703 11.1729 52.386 11.3218 52.5655 11.5089C52.7451 11.6959 52.8848 11.9173 52.9763 12.1597C53.0678 12.4021 53.1092 12.6605 53.098 12.9193V22.8665C53.0971 23.3718 52.8965 23.8564 52.5397 24.2151C52.183 24.5737 51.6989 24.7775 51.1925 24.7822H41.3023C41.0429 24.7934 40.784 24.7521 40.5411 24.6608C40.2981 24.5695 40.0762 24.43 39.8888 24.2509C39.7013 24.0717 39.5521 23.8565 39.4502 23.6183C39.3482 23.3801 39.2957 23.1238 39.2957 22.8647C39.2957 22.6057 39.3482 22.3494 39.4502 22.1112C39.5521 21.8729 39.7013 21.6578 39.8888 21.4786C40.0762 21.2995 40.2981 21.16 40.5411 21.0687C40.784 20.9774 41.0429 20.9361 41.3023 20.9473H46.5273C44.0737 18.2142 40.8464 16.2889 37.2723 15.426C33.6982 14.563 29.9457 14.8032 26.5114 16.1147C23.077 17.4262 20.1227 19.7472 18.0392 22.7706C15.9557 25.794 14.8413 29.3774 14.8434 33.0465C14.8546 33.3053 14.8132 33.5637 14.7217 33.8061C14.6302 34.0485 14.4904 34.2699 14.3109 34.4569C14.1313 34.644 13.9157 34.7929 13.6769 34.8946C13.4382 34.9963 13.1813 35.0487 12.9217 35.0487C12.6621 35.0487 12.4052 34.9963 12.1665 34.8946C11.9277 34.7929 11.7121 34.644 11.5325 34.4569C11.353 34.2699 11.2132 34.0485 11.1217 33.8061C11.0302 33.5637 10.9888 33.3053 11 33.0465C11.002 29.2251 12.0038 25.4704 13.9061 22.1537C15.8084 18.8371 18.5455 16.0733 21.8465 14.1358C25.1476 12.1983 28.8984 11.1541 32.7279 11.1065C36.5575 11.059 40.3331 12.0097 43.6815 13.8646C45.7636 15.021 47.6454 16.5045 49.2546 18.2581V12.9193Z" fill="#303032"/>
</g>
<defs>
<clipPath id="clip0_1_11">
<rect width="44" height="44" fill="white" transform="translate(11 11)"/>
</clipPath>
</defs>
</svg>
