<svg width="44" height="44" viewBox="0 0 44 44" fill="none" xmlns="http://www.w3.org/2000/svg">
<g clip-path="url(#clip0_1_9)">
<path d="M40.1566 22.0465C40.178 21.5523 40.3898 21.0855 40.7479 20.7433C41.1059 20.4012 41.5825 20.2102 42.0783 20.2102C42.5741 20.2102 43.0507 20.4012 43.4087 20.7433C43.7668 21.0855 43.9786 21.5523 44 22.0465C43.9995 26.406 42.698 30.6666 40.2615 34.2851C37.8249 37.9037 34.3636 40.7164 30.3189 42.3646C26.2741 44.0128 21.8291 44.4219 17.5504 43.5398C13.2718 42.6577 9.35327 40.5242 6.29443 37.4115V41.8337C6.29443 42.3427 6.09178 42.8308 5.73105 43.1908C5.37033 43.5507 4.88108 43.7529 4.37093 43.7529C3.86079 43.7529 3.37154 43.5507 3.01082 43.1908C2.65009 42.8308 2.44744 42.3427 2.44744 41.8337V31.9795C2.45217 31.4736 2.65691 30.99 3.01712 30.6339C3.37733 30.2778 3.86388 30.0781 4.37093 30.0781H14.3545C14.6138 30.0669 14.8727 30.1082 15.1157 30.1996C15.3586 30.2909 15.5805 30.4303 15.7679 30.6095C15.9554 30.7886 16.1046 31.0038 16.2065 31.242C16.3085 31.4802 16.361 31.7366 16.361 31.9956C16.361 32.2546 16.3085 32.511 16.2065 32.7492C16.1046 32.9874 15.9554 33.2026 15.7679 33.3817C15.5805 33.5609 15.3586 33.7003 15.1157 33.7916C14.8727 33.883 14.6138 33.9243 14.3545 33.9131H8.25381C10.6764 36.7077 13.8974 38.6965 17.485 39.6127C21.0725 40.5289 24.855 40.3287 28.3253 39.0391C31.7956 37.7494 34.7877 35.4318 36.9005 32.3972C39.0133 29.3625 40.1457 25.7559 40.1458 22.0609L40.1566 22.0465ZM38.2546 1.91927C38.2434 1.66049 38.2848 1.40212 38.3763 1.15973C38.4679 0.917345 38.6076 0.695949 38.7872 0.508882C38.9667 0.321814 39.1823 0.172946 39.4211 0.071245C39.6598 -0.0304561 39.9167 -0.0828857 40.1763 -0.0828857C40.4359 -0.0828857 40.6928 -0.0304561 40.9316 0.071245C41.1703 0.172946 41.386 0.321814 41.5655 0.508882C41.7451 0.695949 41.8848 0.917345 41.9763 1.15973C42.0678 1.40212 42.1092 1.66049 42.098 1.91927V11.8665C42.0971 12.3718 41.8965 12.8564 41.5398 13.2151C41.183 13.5737 40.6989 13.7775 40.1925 13.7822H30.3023C30.0429 13.7934 29.784 13.7521 29.5411 13.6608C29.2981 13.5695 29.0762 13.43 28.8888 13.2509C28.7013 13.0717 28.5521 12.8565 28.4502 12.6183C28.3482 12.3801 28.2957 12.1238 28.2957 11.8647C28.2957 11.6057 28.3482 11.3494 28.4502 11.1112C28.5521 10.8729 28.7013 10.6578 28.8888 10.4786C29.0762 10.2995 29.2981 10.16 29.5411 10.0687C29.784 9.97739 30.0429 9.93607 30.3023 9.94726H35.5273C33.0737 7.21423 29.8464 5.28888 26.2723 4.42596C22.6982 3.56304 18.9457 3.80321 15.5114 5.1147C12.077 6.42619 9.1227 8.74718 7.03922 11.7706C4.95574 14.794 3.84132 18.3774 3.84341 22.0465C3.85462 22.3053 3.81322 22.5637 3.72169 22.8061C3.63017 23.0485 3.49043 23.2699 3.31088 23.4569C3.13133 23.644 2.91569 23.7929 2.67694 23.8946C2.4382 23.9963 2.18129 24.0487 1.9217 24.0487C1.66211 24.0487 1.40521 23.9963 1.16647 23.8946C0.927723 23.7929 0.712081 23.644 0.53253 23.4569C0.352979 23.2699 0.213234 23.0485 0.121714 22.8061C0.0301936 22.5637 -0.0112085 22.3053 1.4909e-06 22.0465C0.00204913 18.2251 1.00377 14.4704 2.90609 11.1537C4.80842 7.83707 7.54545 5.07332 10.8465 3.1358C14.1476 1.19828 17.8984 0.1541 21.7279 0.106532C25.5575 0.058964 29.3331 1.00965 32.6815 2.86458C34.7636 4.02099 36.6454 5.50451 38.2546 7.25813V1.91927Z" fill="#303032"/>
</g>
<defs>
<clipPath id="clip0_1_9">
<rect width="44" height="44" fill="white"/>
</clipPath>
</defs>
</svg>
